<svg xmlns="http://www.w3.org/2000/svg" xmlns:xlink="http://www.w3.org/1999/xlink" width="432" zoomAndPan="magnify" viewBox="0 0 324 60.75" height="81" preserveAspectRatio="xMidYMid meet" version="1.0"><defs><clipPath id="15ab8b815f"><path d="M 0.664062 0 L 58.175781 0 L 58.175781 57.511719 L 0.664062 57.511719 Z M 0.664062 0 " clip-rule="nonzero"/></clipPath><clipPath id="157ef405c2"><path d="M 68.871094 0 L 322.824219 0 L 322.824219 59.753906 L 68.871094 59.753906 Z M 68.871094 0 " clip-rule="nonzero"/></clipPath></defs><g clip-path="url(#15ab8b815f)"><path fill="#000000" d="M 29.421875 0 C 13.5625 0 0.667969 12.902344 0.667969 28.761719 C 0.667969 44.621094 13.5625 57.511719 29.421875 57.511719 C 45.28125 57.511719 58.171875 44.621094 58.171875 28.761719 C 58.171875 12.902344 45.28125 0 29.421875 0 Z M 29.421875 52.855469 C 16.136719 52.855469 5.328125 42.046875 5.328125 28.761719 C 5.328125 15.480469 16.136719 4.667969 29.421875 4.667969 C 42.703125 4.667969 53.515625 15.480469 53.515625 28.761719 C 53.515625 42.046875 42.703125 52.855469 29.421875 52.855469 Z M 29.421875 52.855469 " fill-opacity="1" fill-rule="nonzero"/></g><path fill="#000000" d="M 42.21875 27.898438 L 21.84375 16.136719 C 21.1875 15.753906 20.359375 16.226562 20.359375 16.984375 L 20.359375 40.527344 C 20.359375 41.285156 21.1875 41.757812 21.84375 41.378906 L 42.230469 29.613281 C 42.886719 29.234375 42.886719 28.28125 42.21875 27.898438 Z M 42.21875 27.898438 " fill-opacity="1" fill-rule="nonzero"/><g clip-path="url(#157ef405c2)"><path fill="#000000" d="M 70.476562 32.339844 C 69.589844 32.339844 68.871094 31.617188 68.871094 30.730469 L 68.871094 29.035156 C 68.871094 28.144531 69.589844 27.425781 70.476562 27.425781 C 71.367188 27.425781 72.085938 28.144531 72.085938 29.035156 L 72.085938 30.730469 C 72.085938 31.617188 71.367188 32.339844 70.476562 32.339844 Z M 78.0625 33.269531 L 78.0625 26.492188 C 78.0625 25.605469 77.34375 24.882812 76.457031 24.882812 C 75.566406 24.882812 74.847656 25.605469 74.847656 26.492188 L 74.847656 33.269531 C 74.847656 34.160156 75.566406 34.878906 76.457031 34.878906 C 77.34375 34.878906 78.0625 34.160156 78.0625 33.269531 Z M 84.035156 38.902344 L 84.035156 20.859375 C 84.035156 19.972656 83.316406 19.25 82.429688 19.25 C 81.539062 19.25 80.820312 19.972656 80.820312 20.859375 L 80.820312 38.902344 C 80.820312 39.792969 81.539062 40.511719 82.429688 40.511719 C 83.316406 40.511719 84.035156 39.792969 84.035156 38.902344 Z M 90.011719 33.269531 L 90.011719 26.492188 C 90.011719 25.605469 89.292969 24.882812 88.40625 24.882812 C 87.519531 24.882812 86.800781 25.605469 86.800781 26.492188 L 86.800781 33.269531 C 86.800781 34.160156 87.519531 34.878906 88.40625 34.878906 C 89.292969 34.878906 90.011719 34.160156 90.011719 33.269531 Z M 95.992188 31.6875 L 95.992188 28.074219 C 95.992188 27.183594 95.273438 26.464844 94.382812 26.464844 C 93.496094 26.464844 92.777344 27.183594 92.777344 28.074219 L 92.777344 31.6875 C 92.777344 32.578125 93.496094 33.296875 94.382812 33.296875 C 95.273438 33.296875 95.992188 32.578125 95.992188 31.6875 Z M 101.964844 35.300781 L 101.964844 24.460938 C 101.964844 23.570312 101.246094 22.851562 100.355469 22.851562 C 99.46875 22.851562 98.75 23.570312 98.75 24.460938 L 98.75 35.300781 C 98.75 36.191406 99.46875 36.910156 100.355469 36.910156 C 101.246094 36.910156 101.964844 36.191406 101.964844 35.300781 Z M 107.941406 41.316406 L 107.941406 18.445312 C 107.941406 17.558594 107.222656 16.835938 106.335938 16.835938 C 105.445312 16.835938 104.726562 17.558594 104.726562 18.445312 L 104.726562 41.316406 C 104.726562 42.207031 105.445312 42.925781 106.335938 42.925781 C 107.222656 42.925781 107.941406 42.207031 107.941406 41.316406 Z M 113.917969 48.683594 L 113.917969 11.078125 C 113.917969 10.1875 113.199219 9.46875 112.3125 9.46875 C 111.421875 9.46875 110.703125 10.1875 110.703125 11.078125 L 110.703125 48.683594 C 110.703125 49.574219 111.421875 50.292969 112.3125 50.292969 C 113.199219 50.292969 113.917969 49.574219 113.917969 48.683594 Z M 119.890625 40.765625 L 119.890625 18.996094 C 119.890625 18.109375 119.171875 17.386719 118.285156 17.386719 C 117.398438 17.386719 116.675781 18.109375 116.675781 18.996094 L 116.675781 40.765625 C 116.675781 41.65625 117.398438 42.375 118.285156 42.375 C 119.171875 42.375 119.890625 41.65625 119.890625 40.765625 Z M 125.871094 35.300781 L 125.871094 24.460938 C 125.871094 23.570312 125.152344 22.851562 124.261719 22.851562 C 123.375 22.851562 122.65625 23.570312 122.65625 24.460938 L 122.65625 35.300781 C 122.65625 36.191406 123.375 36.910156 124.261719 36.910156 C 125.152344 36.910156 125.871094 36.191406 125.871094 35.300781 Z M 131.847656 33.269531 L 131.847656 26.492188 C 131.847656 25.605469 131.128906 24.882812 130.238281 24.882812 C 129.351562 24.882812 128.632812 25.605469 128.632812 26.492188 L 128.632812 33.269531 C 128.632812 34.160156 129.351562 34.878906 130.238281 34.878906 C 131.128906 34.878906 131.847656 34.160156 131.847656 33.269531 Z M 137.820312 31.097656 L 137.820312 28.667969 C 137.820312 27.777344 137.101562 27.058594 136.214844 27.058594 C 135.324219 27.058594 134.605469 27.777344 134.605469 28.667969 L 134.605469 31.097656 C 134.605469 31.984375 135.324219 32.707031 136.214844 32.707031 C 137.101562 32.707031 137.820312 31.984375 137.820312 31.097656 Z M 143.796875 34.667969 L 143.796875 25.097656 C 143.796875 24.207031 143.078125 23.488281 142.191406 23.488281 C 141.300781 23.488281 140.582031 24.207031 140.582031 25.097656 L 140.582031 34.667969 C 140.582031 35.558594 141.300781 36.277344 142.191406 36.277344 C 143.078125 36.277344 143.796875 35.558594 143.796875 34.667969 Z M 149.773438 32.675781 L 149.773438 27.085938 C 149.773438 26.195312 149.054688 25.476562 148.167969 25.476562 C 147.28125 25.476562 146.5625 26.195312 146.5625 27.085938 L 146.5625 32.675781 C 146.5625 33.566406 147.28125 34.285156 148.167969 34.285156 C 149.054688 34.285156 149.773438 33.566406 149.773438 32.675781 Z M 155.75 39.621094 L 155.75 20.140625 C 155.75 19.25 155.027344 18.53125 154.140625 18.53125 C 153.253906 18.53125 152.535156 19.25 152.535156 20.140625 L 152.535156 39.621094 C 152.535156 40.511719 153.253906 41.230469 154.140625 41.230469 C 155.027344 41.230469 155.75 40.511719 155.75 39.621094 Z M 161.726562 48.09375 L 161.726562 11.671875 C 161.726562 10.78125 161.007812 10.0625 160.117188 10.0625 C 159.230469 10.0625 158.511719 10.78125 158.511719 11.671875 L 158.511719 48.09375 C 158.511719 48.980469 159.230469 49.703125 160.117188 49.703125 C 161.007812 49.703125 161.726562 48.980469 161.726562 48.09375 Z M 167.703125 58.085938 L 167.703125 1.675781 C 167.703125 0.785156 166.984375 0.0664062 166.097656 0.0664062 C 165.207031 0.0664062 164.488281 0.785156 164.488281 1.675781 L 164.488281 58.085938 C 164.488281 58.976562 165.207031 59.695312 166.097656 59.695312 C 166.984375 59.695312 167.703125 58.976562 167.703125 58.085938 Z M 173.675781 48.09375 L 173.675781 11.671875 C 173.675781 10.78125 172.957031 10.0625 172.070312 10.0625 C 171.179688 10.0625 170.460938 10.78125 170.460938 11.671875 L 170.460938 48.09375 C 170.460938 48.980469 171.179688 49.703125 172.070312 49.703125 C 172.957031 49.703125 173.675781 48.980469 173.675781 48.09375 Z M 179.652344 39.621094 L 179.652344 20.140625 C 179.652344 19.25 178.933594 18.53125 178.046875 18.53125 C 177.160156 18.53125 176.441406 19.25 176.441406 20.140625 L 176.441406 39.621094 C 176.441406 40.511719 177.160156 41.230469 178.046875 41.230469 C 178.933594 41.230469 179.652344 40.511719 179.652344 39.621094 Z M 185.632812 32.847656 L 185.632812 26.917969 C 185.632812 26.027344 184.914062 25.308594 184.023438 25.308594 C 183.136719 25.308594 182.417969 26.027344 182.417969 26.917969 L 182.417969 32.847656 C 182.417969 33.734375 183.136719 34.457031 184.023438 34.457031 C 184.914062 34.457031 185.632812 33.734375 185.632812 32.847656 Z M 191.609375 34.921875 L 191.609375 24.84375 C 191.609375 23.953125 190.890625 23.234375 190.003906 23.234375 C 189.113281 23.234375 188.394531 23.953125 188.394531 24.84375 L 188.394531 34.921875 C 188.394531 35.8125 189.113281 36.53125 190.003906 36.53125 C 190.886719 36.53125 191.609375 35.8125 191.609375 34.921875 Z M 197.582031 39.621094 L 197.582031 20.140625 C 197.582031 19.25 196.863281 18.53125 195.976562 18.53125 C 195.085938 18.53125 194.367188 19.25 194.367188 20.140625 L 194.367188 39.621094 C 194.367188 40.511719 195.085938 41.230469 195.976562 41.230469 C 196.863281 41.230469 197.582031 40.511719 197.582031 39.621094 Z M 203.558594 46.527344 L 203.558594 13.238281 C 203.558594 12.347656 202.839844 11.628906 201.953125 11.628906 C 201.066406 11.628906 200.34375 12.347656 200.34375 13.238281 L 200.34375 46.527344 C 200.34375 47.414062 201.066406 48.136719 201.953125 48.136719 C 202.839844 48.136719 203.558594 47.414062 203.558594 46.527344 Z M 209.539062 39.621094 L 209.539062 20.140625 C 209.539062 19.25 208.820312 18.53125 207.929688 18.53125 C 207.042969 18.53125 206.324219 19.25 206.324219 20.140625 L 206.324219 39.621094 C 206.324219 40.511719 207.042969 41.230469 207.929688 41.230469 C 208.8125 41.230469 209.539062 40.511719 209.539062 39.621094 Z M 215.511719 34.921875 L 215.511719 24.84375 C 215.511719 23.953125 214.792969 23.234375 213.902344 23.234375 C 213.015625 23.234375 212.296875 23.953125 212.296875 24.84375 L 212.296875 34.921875 C 212.296875 35.8125 213.015625 36.53125 213.902344 36.53125 C 214.792969 36.53125 215.511719 35.8125 215.511719 34.921875 Z M 221.488281 31.871094 L 221.488281 27.890625 C 221.488281 27 220.769531 26.28125 219.878906 26.28125 C 218.992188 26.28125 218.273438 27 218.273438 27.890625 L 218.273438 31.871094 C 218.273438 32.761719 218.992188 33.480469 219.878906 33.480469 C 220.769531 33.480469 221.488281 32.761719 221.488281 31.871094 Z M 227.464844 33.949219 L 227.464844 25.816406 C 227.464844 24.925781 226.746094 24.207031 225.859375 24.207031 C 224.96875 24.207031 224.25 24.925781 224.25 25.816406 L 224.25 33.949219 C 224.25 34.835938 224.96875 35.558594 225.859375 35.558594 C 226.742188 35.558594 227.464844 34.835938 227.464844 33.949219 Z M 233.4375 32.464844 L 233.4375 27.296875 C 233.4375 26.410156 232.71875 25.6875 231.832031 25.6875 C 230.941406 25.6875 230.222656 26.410156 230.222656 27.296875 L 230.222656 32.464844 C 230.222656 33.355469 230.941406 34.074219 231.832031 34.074219 C 232.71875 34.074219 233.4375 33.355469 233.4375 32.464844 Z M 239.417969 37.082031 L 239.417969 22.683594 C 239.417969 21.792969 238.695312 21.074219 237.808594 21.074219 C 236.921875 21.074219 236.203125 21.792969 236.203125 22.683594 L 236.203125 37.082031 C 236.203125 37.972656 236.921875 38.691406 237.808594 38.691406 C 238.695312 38.691406 239.417969 37.972656 239.417969 37.082031 Z M 245.394531 43.6875 L 245.394531 16.074219 C 245.394531 15.1875 244.675781 14.464844 243.785156 14.464844 C 242.898438 14.464844 242.179688 15.1875 242.179688 16.074219 L 242.179688 43.6875 C 242.179688 44.578125 242.898438 45.296875 243.785156 45.296875 C 244.671875 45.296875 245.394531 44.578125 245.394531 43.6875 Z M 251.367188 53.003906 L 251.367188 6.757812 C 251.367188 5.867188 250.648438 5.148438 249.757812 5.148438 C 248.871094 5.148438 248.152344 5.867188 248.152344 6.757812 L 248.152344 53.003906 C 248.152344 53.894531 248.871094 54.613281 249.757812 54.613281 C 250.648438 54.613281 251.367188 53.894531 251.367188 53.003906 Z M 257.34375 42.96875 L 257.34375 16.796875 C 257.34375 15.90625 256.625 15.1875 255.738281 15.1875 C 254.847656 15.1875 254.128906 15.90625 254.128906 16.796875 L 254.128906 42.96875 C 254.128906 43.859375 254.847656 44.578125 255.738281 44.578125 C 256.625 44.578125 257.34375 43.859375 257.34375 42.96875 Z M 316.886719 42.96875 L 316.886719 16.796875 C 316.886719 15.90625 316.167969 15.1875 315.277344 15.1875 C 314.390625 15.1875 313.671875 15.90625 313.671875 16.796875 L 313.671875 42.96875 C 313.671875 43.859375 314.390625 44.578125 315.277344 44.578125 C 316.167969 44.578125 316.886719 43.859375 316.886719 42.96875 Z M 263.320312 34.753906 L 263.320312 25.011719 C 263.320312 24.121094 262.601562 23.402344 261.714844 23.402344 C 260.828125 23.402344 260.109375 24.121094 260.109375 25.011719 L 260.109375 34.753906 C 260.109375 35.640625 260.828125 36.363281 261.714844 36.363281 C 262.601562 36.363281 263.320312 35.640625 263.320312 34.753906 Z M 305.042969 34.753906 L 305.042969 25.011719 C 305.042969 24.121094 304.324219 23.402344 303.4375 23.402344 C 302.546875 23.402344 301.828125 24.121094 301.828125 25.011719 L 301.828125 34.753906 C 301.828125 35.640625 302.546875 36.363281 303.4375 36.363281 C 304.324219 36.363281 305.042969 35.640625 305.042969 34.753906 Z M 269.292969 31.660156 L 269.292969 28.101562 C 269.292969 27.214844 268.574219 26.492188 267.6875 26.492188 C 266.800781 26.492188 266.082031 27.214844 266.082031 28.101562 L 266.082031 31.660156 C 266.082031 32.550781 266.800781 33.269531 267.6875 33.269531 C 268.574219 33.269531 269.292969 32.550781 269.292969 31.660156 Z M 275.273438 33.183594 L 275.273438 26.578125 C 275.273438 25.6875 274.554688 24.96875 273.664062 24.96875 C 272.777344 24.96875 272.058594 25.6875 272.058594 26.578125 L 272.058594 33.183594 C 272.058594 34.074219 272.777344 34.792969 273.664062 34.792969 C 274.554688 34.792969 275.273438 34.074219 275.273438 33.183594 Z M 299.121094 33.183594 L 299.121094 26.578125 C 299.121094 25.6875 298.402344 24.96875 297.515625 24.96875 C 296.625 24.96875 295.90625 25.6875 295.90625 26.578125 L 295.90625 33.183594 C 295.90625 34.074219 296.625 34.792969 297.515625 34.792969 C 298.402344 34.792969 299.121094 34.074219 299.121094 33.183594 Z M 281.25 38.691406 L 281.25 21.074219 C 281.25 20.183594 280.53125 19.464844 279.644531 19.464844 C 278.753906 19.464844 278.035156 20.183594 278.035156 21.074219 L 278.035156 38.691406 C 278.035156 39.582031 278.753906 40.300781 279.644531 40.300781 C 280.53125 40.300781 281.25 39.582031 281.25 38.691406 Z M 322.808594 38.691406 L 322.808594 21.074219 C 322.808594 20.183594 322.085938 19.464844 321.199219 19.464844 C 320.3125 19.464844 319.59375 20.183594 319.59375 21.074219 L 319.59375 38.691406 C 319.59375 39.582031 320.3125 40.300781 321.199219 40.300781 C 322.085938 40.300781 322.808594 39.582031 322.808594 38.691406 Z M 310.964844 38.691406 L 310.964844 21.074219 C 310.964844 20.183594 310.246094 19.464844 309.355469 19.464844 C 308.46875 19.464844 307.75 20.183594 307.75 21.074219 L 307.75 38.691406 C 307.75 39.582031 308.46875 40.300781 309.355469 40.300781 C 310.246094 40.300781 310.964844 39.582031 310.964844 38.691406 Z M 287.222656 32.464844 L 287.222656 27.296875 C 287.222656 26.410156 286.503906 25.6875 285.617188 25.6875 C 284.726562 25.6875 284.007812 26.410156 284.007812 27.296875 L 284.007812 32.464844 C 284.007812 33.355469 284.726562 34.074219 285.617188 34.074219 C 286.503906 34.074219 287.222656 33.355469 287.222656 32.464844 Z M 293.199219 35.089844 L 293.199219 24.671875 C 293.199219 23.785156 292.480469 23.0625 291.59375 23.0625 C 290.707031 23.0625 289.984375 23.785156 289.984375 24.671875 L 289.984375 35.089844 C 289.984375 35.980469 290.707031 36.699219 291.59375 36.699219 C 292.480469 36.699219 293.199219 35.980469 293.199219 35.089844 Z M 293.199219 35.089844 " fill-opacity="1" fill-rule="nonzero"/></g></svg>